# xmcd CD database file
#
# Track frame offsets:
#	150
#	25260
#	47204
#	61144
#	85726
#	116285
#	139117
#	170412
#	202879
#	227438
#	250988
#	277577
#	300112
#
# Disc length: 4410 seconds
#
# Revision: 12
# Processed by: cddbd v1.5.1PL0 Copyright (c) Steve Scherf et al.
# Submitted via: CDex 1.51
#
DISCID=9611380d
DTITLE=Mr.Children - Mr.Children 1996-2000
DYEAR=1900
DGENRE=Pop
TTITLE0=名もなき詩
TTITLE1=花 -Memento-Mori-
TTITLE2=Mirror
TTITLE3=Everything(It's you)
TTITLE4=ALIVE
TTITLE5=ニシヘヒガシヘ
TTITLE6=光の射す方へ
TTITLE7=終わりなき旅
TTITLE8=ラララ
TTITLE9=つよがり
TTITLE10=口笛
TTITLE11=NOT FOUND
TTITLE12=Hallelujah
EXTD=
EXTT0=
EXTT1=
EXTT2=
EXTT3=
EXTT4=
EXTT5=
EXTT6=
EXTT7=
EXTT8=
EXTT9=
EXTT10=
EXTT11=
EXTT12=
PLAYORDER=
